# xmcd
#
# Track frame offsets:
#	150
#	17337
#	35964
#	52034
#	67643
#	84903
#	102178
#	121434
#	133250
#	154559
#	168458
#	180663
#	201331
#	215283
#	229482
#
# Disc length: 3294 seconds
#
# Revision: 0
# Processed by: cddbd v1.5.2PL0 Copyright (c) Steve Scherf et al.
# Submitted via: audiograbber 1.83.01
#
DISCID=cb0cdc0f
DTITLE=Chartbusters - CB 90258R
DYEAR=1900
DGENRE=
TTITLE0=Strait, George - Write This Down
TTITLE1=Strait, George - I Hate Everything
TTITLE2=Strait, George - The Best Day
TTITLE3=Strait, George - Tell Me Something Bad About Tulsa
TTITLE4=Strait, George - Living And Living Well
TTITLE5=Strait, George - Cowboys Like Us
TTITLE6=Strait, George - Desperately
TTITLE7=Strait, George - If You Ain't Lovin' You Ain't Livin'
TTITLE8=Strait, George - If You Can Do Anything Else
TTITLE9=Strait, George - Nobody In His Right Mind Would've Left Her
TTITLE10=Strait, George - Overnight Male
TTITLE11=Strait, George - Murder On Music Row
TTITLE12=Strait, George - Always Never The Same
TTITLE13=Strait, George - She'll Leave You With A Smile
TTITLE14=Strait, George - Go On
EXTD=
EXTT0=
EXTT1=
EXTT2=
EXTT3=
EXTT4=
EXTT5=
EXTT6=
EXTT7=
EXTT8=
EXTT9=
EXTT10=
EXTT11=
EXTT12=
EXTT13=
EXTT14=
PLAYORDER=
